<svg id="Capa_1" enable-background="new 0 0 512 512" height="512" viewBox="0 0 512 512" width="512" xmlns="http://www.w3.org/2000/svg"><g><path d="m437.02 74.98c-48.353-48.351-112.64-74.98-181.02-74.98s-132.667 26.629-181.02 74.98c-48.351 48.353-74.98 112.64-74.98 181.02s26.629 132.667 74.98 181.02c48.353 48.351 112.64 74.98 181.02 74.98s132.667-26.629 181.02-74.98c48.351-48.353 74.98-112.64 74.98-181.02s-26.629-132.667-74.98-181.02zm-21.214 340.826c-42.686 42.686-99.439 66.194-159.806 66.194s-117.12-23.508-159.806-66.194-66.194-99.439-66.194-159.806 23.508-117.12 66.194-159.806 99.439-66.194 159.806-66.194 117.12 23.508 159.806 66.194 66.194 99.439 66.194 159.806-23.508 117.12-66.194 159.806z"/><path d="m256 60.25c-107.937 0-195.75 87.813-195.75 195.75s87.813 195.75 195.75 195.75 195.75-87.813 195.75-195.75-87.813-195.75-195.75-195.75zm0 301.25c-58.173 0-105.5-47.327-105.5-105.5s47.327-105.5 105.5-105.5 105.5 47.327 105.5 105.5-47.327 105.5-105.5 105.5zm84.571-211.284c-19.517-15.635-43.434-25.989-69.571-28.881v-30.399c34.457 3.106 65.905 16.795 91.059 37.792zm-99.571-28.882c-26.137 2.892-50.054 13.246-69.571 28.881l-21.488-21.488c25.154-20.997 56.602-34.686 91.059-37.792zm-90.784 50.095c-15.635 19.517-25.989 43.434-28.881 69.571h-30.399c3.106-34.457 16.795-65.905 37.792-91.059zm-28.882 99.571c2.892 26.137 13.246 50.054 28.881 69.571l-21.488 21.488c-20.996-25.154-34.685-56.602-37.791-91.059zm50.095 90.784c19.517 15.635 43.434 25.989 69.571 28.881v30.398c-34.457-3.106-65.905-16.795-91.059-37.792zm99.571 28.882c26.137-2.892 50.054-13.246 69.571-28.881l21.488 21.488c-25.154 20.997-56.602 34.686-91.059 37.792zm90.784-50.095c15.635-19.517 25.989-43.434 28.881-69.571h30.398c-3.106 34.457-16.795 65.905-37.792 91.059zm28.881-99.571c-2.892-26.137-13.246-50.054-28.881-69.571l21.488-21.488c20.997 25.154 34.686 56.602 37.792 91.059z"/><path d="m301.235 240.985h-30.235v-30.235h9.939v-30h-49.879v30h9.94v30.235h-30.236v-9.94h-30v49.88h30v-9.94h30.236v30.236h-9.94v30h49.879v-30h-9.939v-30.236h30.235v9.94h30v-49.88h-30z"/></g></svg>