<svg id="Capa_1" enable-background="new 0 0 512 512" height="512" viewBox="0 0 512 512" width="512" xmlns="http://www.w3.org/2000/svg"><path d="m481.938 231.938c0-95.795-60.205-180.324-148.767-212.411l13.57-19.527h-181.482l13.57 19.527c-88.562 32.086-148.767 116.616-148.767 212.411 0 60.35 23.501 117.088 66.176 159.762 15.892 15.892 33.736 29.12 52.989 39.471l-10.848 80.829h235.241l-10.848-80.83c19.253-10.351 37.097-23.579 52.989-39.471 42.675-42.674 66.177-99.411 66.177-159.761zm-192.577-201.938-33.361 48.006-33.361-48.006zm-98.835 83.067 29.295 70.725c-4.526 3.41-8.557 7.441-11.967 11.967l-70.721-29.294c5.069-9.192 11.227-17.836 18.408-25.74 10.175-11.198 22.012-20.5 34.985-27.658zm95.724 118.871c0 16.68-13.57 30.25-30.25 30.25s-30.25-13.57-30.25-30.25 13.57-30.25 30.25-30.25 30.25 13.57 30.25 30.25zm-165.938 0c0-12.903 1.827-25.597 5.343-37.754l70.702 29.286c-.391 2.769-.607 5.594-.607 8.469s.216 5.7.607 8.469l-70.695 29.283c-3.478-11.992-5.35-24.658-5.35-37.753zm87.543 36.178c3.409 4.526 7.441 8.557 11.967 11.967l-29.275 70.677c-22.417-12.398-40.971-30.952-53.368-53.368zm39.676 23.465c2.769.391 5.594.607 8.469.607s5.7-.216 8.469-.607l29.283 70.695c-11.99 3.478-24.656 5.349-37.752 5.349s-25.762-1.871-37.752-5.349zm73.923 59.179-29.275-70.677c4.526-3.41 8.557-7.441 11.967-11.967l70.677 29.275c-12.399 22.417-30.953 40.971-53.369 53.369zm70.234-118.822c0 13.096-1.871 25.762-5.349 37.752l-70.695-29.283c.391-2.769.607-5.594.607-8.469s-.216-5.7-.607-8.469l70.702-29.286c3.514 12.157 5.342 24.851 5.342 37.755zm-87.543-36.179c-3.409-4.526-7.441-8.557-11.967-11.967l29.295-70.725c12.965 7.154 24.796 16.449 34.968 27.64 7.188 7.909 13.352 16.559 18.425 25.758zm-39.676-23.465c-2.769-.391-5.594-.607-8.469-.607s-5.7.216-8.469.607l-29.292-70.716c4.98-1.44 10.056-2.596 15.206-3.458l22.555 32.457 22.555-32.456c5.15.862 10.226 2.018 15.206 3.458zm74.857 309.706h-166.652l5.099-37.988c24.715 9.101 51.104 13.863 78.227 13.863s53.512-4.762 78.227-13.863zm-83.326-54.125c-108.04 0-195.938-87.897-195.938-195.938 0-85.785 55.659-161.151 136.577-186.781l18.243 26.252c-31.195 7.969-59.552 24.937-81.545 49.144-27.745 30.538-43.025 70.095-43.025 111.385 0 91.36 74.327 165.688 165.688 165.688s165.688-74.327 165.688-165.688c0-41.301-15.287-80.867-43.045-111.408-21.992-24.196-50.339-41.155-81.525-49.121l18.243-26.252c80.918 25.63 136.577 100.996 136.577 186.781 0 108.041-87.898 195.938-195.938 195.938z"/></svg>