<svg id="Capa_1" enable-background="new 0 0 512 512" height="512" viewBox="0 0 512 512" width="512" xmlns="http://www.w3.org/2000/svg"><g><path d="m202.65 225.914c0 24.861 20.226 45.086 45.086 45.086h16.526c8.319 0 15.086 6.768 15.086 15.086s-6.768 15.087-15.086 15.087h-16.82c-8.025 0-14.554-6.529-14.554-14.554h-30c0 22.379 16.587 40.95 38.111 44.082v16.088h30v-16.121c21.677-3.262 38.35-22.01 38.35-44.582 0-24.861-20.226-45.086-45.086-45.086h-16.526c-8.319 0-15.086-6.768-15.086-15.086s6.768-15.087 15.086-15.087h16.147c8.329 0 15.105 6.776 15.105 15.105h30c0-22.45-16.488-41.116-37.99-44.539v-16.183h-30v16.121c-21.676 3.263-38.349 22.011-38.349 44.583z"/><path d="m0 90.375v331.25h512v-331.25zm361.375 171.486 15.125 15.125 21.213-21.213-21.213-21.212-15.125 15.125v-69.066h32.888c4.534 12.816 14.709 22.991 27.525 27.525v95.696c-12.816 4.534-22.991 14.709-27.525 27.525h-32.888zm-30 129.764h-150.711v-271.25h150.711zm-180.711-141.901-15.164-15.163-21.213 21.213 21.213 21.213 15.164-15.164v69.543h-32.889c-4.534-12.816-14.709-22.991-27.525-27.525v-95.696c12.816-4.534 22.991-14.709 27.525-27.525h32.889zm-120.664-129.349h120.664v30.245h-60.324v15c0 8.321-6.769 15.09-15.09 15.09h-15v150.566h15c8.321 0 15.09 6.769 15.09 15.09v15h60.324v30.259h-120.664zm452 271.25h-120.625v-30.259h60.323v-15c0-8.321 6.77-15.09 15.09-15.09h15v-150.566h-15c-8.321 0-15.09-6.769-15.09-15.09v-15h-60.323v-30.245h120.625z"/></g></svg>