<svg id="Capa_1" enable-background="new 0 0 512 512" height="512" viewBox="0 0 512 512" width="512" xmlns="http://www.w3.org/2000/svg"><g><path d="m90.375 120.5h30v30h-30z"/><path d="m271.125 421.75h30v30h-30z"/><path d="m162.766 339.826c6.357 0 12.427-1.244 17.984-3.498v26.854h30v-26.854c5.557 2.254 11.627 3.498 17.984 3.498 26.458 0 47.983-21.525 47.983-47.984 0-21.895-14.741-40.411-34.819-46.147-5.737-20.078-24.254-34.82-46.148-34.82s-40.412 14.742-46.148 34.82c-20.078 5.736-34.819 24.253-34.819 46.147 0 26.459 21.525 47.984 47.983 47.984zm0-65.967h15v-15c0-9.917 8.067-17.984 17.984-17.984s17.984 8.067 17.984 17.984v15h15c9.916 0 17.983 8.067 17.983 17.983 0 9.917-8.067 17.984-17.983 17.984-9.917 0-17.984-8.067-17.984-17.984h-30c0 9.917-8.067 17.984-17.984 17.984-9.916 0-17.983-8.067-17.983-17.984 0-9.916 8.067-17.983 17.983-17.983z"/><path d="m421.625 60.25v-60.25h-331.25v60.25h-60.25v451.75h451.75v-451.75zm-90.25 421.75h-271.25v-391.75h271.25zm-211-421.75v-30.25h271.25v391.75h-30.25v-361.5zm331.5 421.75h-90.5v-30.25h60.25v-361.5h30.25z"/></g></svg>