<svg id="Capa_1" enable-background="new 0 0 512 512" height="512" viewBox="0 0 512 512" width="512" xmlns="http://www.w3.org/2000/svg"><g><path d="m264.264 195.79h-16.527c-8.318 0-15.086-6.768-15.086-15.086s6.768-15.087 15.086-15.087h16.148c8.329 0 15.104 6.776 15.104 15.105h30c0-22.45-16.488-41.116-37.989-44.539v-16.183h-30v16.121c-21.676 3.262-38.35 22.01-38.35 44.582 0 24.861 20.226 45.086 45.086 45.086h16.527c8.318 0 15.086 6.768 15.086 15.087s-6.768 15.086-15.086 15.086h-16.82c-8.025 0-14.554-6.529-14.554-14.554h-30c0 22.378 16.586 40.95 38.11 44.082v16.088h30v-16.121c21.676-3.262 38.35-22.01 38.35-44.582.001-24.859-20.225-45.085-45.085-45.085z"/><path d="m481.875 376.54v-60.25h-60.969c20.044-31.299 30.844-67.822 30.844-105.5 0-107.937-87.813-195.75-195.75-195.75s-195.75 87.813-195.75 195.75c0 37.678 10.799 74.201 30.844 105.5h-60.969v60.25h-30.125v120.42h512v-120.42zm-391.625-165.75c0-91.395 74.355-165.75 165.75-165.75s165.75 74.355 165.75 165.75c0 38.647-13.423 75.851-37.916 105.5h-42.909c30.821-24.859 50.576-62.913 50.576-105.5 0-74.715-60.785-135.5-135.5-135.5s-135.5 60.785-135.5 135.5c0 42.587 19.755 80.641 50.576 105.5h-42.909c-24.495-29.649-37.918-66.852-37.918-105.5zm60.25 0c0-58.173 47.327-105.5 105.5-105.5s105.5 47.327 105.5 105.5-47.327 105.5-105.5 105.5-105.5-47.327-105.5-105.5zm-90.375 135.5h391.75v30.25h-391.75zm421.875 120.67h-452v-60.42h452z"/></g></svg>