<svg id="Capa_1" enable-background="new 0 0 512 512" height="512" viewBox="0 0 512 512" width="512" xmlns="http://www.w3.org/2000/svg"><g><path d="m290.098 247.78c.501-2.688.775-5.454.775-8.284 0-19.659-12.642-36.413-30.22-42.584v-103.219h-30v103.283c-17.479 6.224-30.03 22.93-30.03 42.52 0 2.796.269 5.529.758 8.185l-89.449 51.643 15 25.98 89.413-51.622c7.905 6.808 18.178 10.938 29.404 10.938 11.19 0 21.434-4.104 29.328-10.873l89.298 51.557 15-25.98zm-44.349 6.84c-8.34 0-15.125-6.785-15.125-15.125s6.785-15.125 15.125-15.125 15.125 6.785 15.125 15.125-6.786 15.125-15.125 15.125z"/><path d="m451.014 101.668 12.869 12.869 21.213-21.213-93.325-93.324-21.213 21.213 12.868 12.868-20.53 20.53c-35.008-22.257-75.244-33.96-117.148-33.96-58.455 0-113.412 22.764-154.746 64.098s-64.098 96.291-64.098 154.746 22.764 113.412 64.098 154.746c14.462 14.462 30.596 26.641 47.959 36.377l-10.921 81.382h235.241l-10.911-81.292c17.426-9.751 33.617-21.96 48.125-36.468 41.334-41.334 64.098-96.291 64.098-154.746 0-41.98-11.743-82.279-34.075-117.33zm-21.213-21.213-18.661 18.661-25.174-25.148 18.673-18.674zm-100.815 401.545h-166.652l5.105-38.033c24.666 9.436 51.108 14.371 78.309 14.371 27.14 0 53.523-4.915 78.141-14.309zm-83.237-53.662c-104.129 0-188.844-84.715-188.844-188.843 0-104.129 84.715-188.844 188.844-188.844 39.494 0 77.26 12.047 109.303 34.838l44.589 44.542c22.865 32.079 34.952 69.9 34.952 109.463-.001 104.13-84.716 188.844-188.844 188.844z"/><path d="m245.749 310.913c-24.882 0-45.125 20.243-45.125 45.125s20.243 45.125 45.125 45.125 45.125-20.243 45.125-45.125-20.244-45.125-45.125-45.125zm0 60.25c-8.34 0-15.125-6.785-15.125-15.125s6.785-15.125 15.125-15.125 15.125 6.785 15.125 15.125-6.786 15.125-15.125 15.125z"/><path d="m174.18 210.291c0-24.882-20.243-45.125-45.125-45.125s-45.125 20.243-45.125 45.125 20.243 45.125 45.125 45.125 45.125-20.244 45.125-45.125zm-60.25 0c0-8.34 6.785-15.125 15.125-15.125s15.125 6.785 15.125 15.125-6.785 15.125-15.125 15.125-15.125-6.786-15.125-15.125z"/><path d="m333.292 197.117c24.882 0 45.125-20.243 45.125-45.125s-20.243-45.125-45.125-45.125-45.125 20.243-45.125 45.125 20.243 45.125 45.125 45.125zm0-60.25c8.34 0 15.125 6.785 15.125 15.125s-6.785 15.125-15.125 15.125-15.125-6.785-15.125-15.125 6.785-15.125 15.125-15.125z"/></g></svg>