<svg id="Capa_1" enable-background="new 0 0 512 512" height="512" viewBox="0 0 512 512" width="512" xmlns="http://www.w3.org/2000/svg"><g><path d="m143.764 120.5h-16.527c-8.318 0-15.086-6.768-15.086-15.086s6.768-15.087 15.086-15.087h16.148c8.329 0 15.104 6.776 15.104 15.105h30c0-22.45-16.488-41.116-37.989-44.539v-16.183h-30v16.121c-21.676 3.262-38.35 22.01-38.35 44.582 0 24.861 20.226 45.086 45.086 45.086h16.527c8.318 0 15.086 6.768 15.086 15.086s-6.768 15.087-15.086 15.087h-16.82c-8.025 0-14.554-6.529-14.554-14.554h-30c0 22.378 16.586 40.95 38.11 44.082v16.088h30v-16.121c21.676-3.262 38.35-22.01 38.35-44.582.001-24.859-20.225-45.085-45.085-45.085z"/><path d="m135.5 0c-74.715 0-135.5 60.785-135.5 135.5s60.785 135.5 135.5 135.5 135.5-60.785 135.5-135.5-60.785-135.5-135.5-135.5zm0 241c-58.173 0-105.5-47.327-105.5-105.5s47.327-105.5 105.5-105.5 105.5 47.327 105.5 105.5-47.327 105.5-105.5 105.5z"/><path d="m376.5 241c-74.715 0-135.5 60.785-135.5 135.5s60.785 135.5 135.5 135.5 135.5-60.785 135.5-135.5-60.785-135.5-135.5-135.5zm0 180.75c-24.951 0-45.25-20.299-45.25-45.25s20.299-45.25 45.25-45.25 45.25 20.299 45.25 45.25-20.299 45.25-45.25 45.25zm41.51-107.973c-7.919-5.259-16.881-9.066-26.51-11.021v-30.684c17.9 2.559 34.367 9.622 48.206 20.01zm-56.51-11.022c-9.629 1.956-18.591 5.763-26.51 11.021l-21.695-21.696c13.839-10.388 30.306-17.451 48.206-20.01v30.685zm-47.723 32.235c-5.259 7.919-9.066 16.881-11.021 26.51h-30.684c2.559-17.9 9.622-34.367 20.01-48.206zm-11.022 56.51c1.956 9.629 5.763 18.591 11.021 26.51l-21.695 21.696c-10.388-13.839-17.451-30.306-20.01-48.206zm32.235 47.723c7.919 5.259 16.881 9.066 26.51 11.021v30.684c-17.9-2.559-34.367-9.622-48.206-20.01zm56.51 11.022c9.629-1.956 18.591-5.763 26.51-11.021l21.695 21.696c-13.839 10.388-30.306 17.451-48.206 20.01v-30.685zm47.723-32.235c5.259-7.919 9.066-16.881 11.021-26.51h30.684c-2.559 17.9-9.622 34.367-20.01 48.206zm11.022-56.51c-1.956-9.629-5.763-18.591-11.021-26.51l21.695-21.696c10.388 13.839 17.451 30.306 20.01 48.206z"/><path d="m421.75 135.5v28.037l-16.997-16.997-21.213 21.213 53.21 53.209 53.21-53.209-21.213-21.213-16.997 16.997v-28.037c0-41.493-33.757-75.25-75.25-75.25h-76.25v30h76.25c24.951 0 45.25 20.299 45.25 45.25z"/><path d="m90.248 376.499v-28.037l16.997 16.997 21.213-21.213-53.21-53.21-53.209 53.21 21.213 21.213 16.996-16.996v28.036c0 41.493 33.757 75.25 75.25 75.25h76.25v-30h-76.25c-24.951 0-45.25-20.299-45.25-45.25z"/></g></svg>