<svg id="Capa_1" enable-background="new 0 0 512 512" height="512" viewBox="0 0 512 512" width="512" xmlns="http://www.w3.org/2000/svg"><g><path d="m60.239 0v512h391.522v-512zm241.006 482h-211.006v-211h211.006zm0-241h-211.006v-211h211.006zm60.269 241h-30.27v-452h30.27zm60.247 0h-30.247v-452h30.247z"/><path d="m120.495 301.25h30v30h-30z"/><path d="m240.995 301.25h30v30h-30z"/><path d="m120.495 180.75h30v30h-30z"/><path d="m180.742 120.5h30v30h-30z"/><path d="m240.995 60.25h30v30h-30z"/><path d="m180.742 361.5h30v30h-30z"/><path d="m120.495 421.75h30v30h-30z"/><path d="m240.995 421.75h30v30h-30z"/></g></svg>