<svg id="Capa_1" enable-background="new 0 0 512 512" height="512" viewBox="0 0 512 512" width="512" xmlns="http://www.w3.org/2000/svg"><g><path d="m437.02 74.98c-48.353-48.351-112.64-74.98-181.02-74.98s-132.667 26.629-181.02 74.98c-48.351 48.353-74.98 112.64-74.98 181.02s26.629 132.667 74.98 181.02c48.353 48.351 112.64 74.98 181.02 74.98s132.667-26.629 181.02-74.98c48.351-48.353 74.98-112.64 74.98-181.02s-26.629-132.667-74.98-181.02zm44.478 166.02h-30.318c-1.209-15.879-4.333-31.229-9.12-45.833l28.111-11.644c6.213 18.414 10.04 37.698 11.327 57.477zm-22.807-85.193-28.138 11.655c-7.121-13.981-15.874-26.996-26.004-38.797l21.509-21.509c13.075 14.895 24.005 31.237 32.633 48.651zm-102.498-102.498c17.413 8.627 33.755 19.558 48.651 32.633l-21.509 21.509c-11.801-10.13-24.816-18.884-38.797-26.004zm-85.193-22.807c19.779 1.288 39.063 5.114 57.477 11.326l-11.644 28.111c-14.604-4.787-29.954-7.911-45.833-9.12zm-30 0v30.317c-15.879 1.209-31.229 4.333-45.833 9.12l-11.644-28.111c18.414-6.212 37.698-10.038 57.477-11.326zm-85.193 22.807 11.655 28.138c-13.981 7.121-26.996 15.874-38.797 26.004l-21.509-21.509c14.895-13.075 31.237-24.005 48.651-32.633zm-69.865 53.846 21.509 21.509c-10.13 11.801-18.884 24.816-26.004 38.797l-28.138-11.655c8.628-17.413 19.558-33.755 32.633-48.651zm-44.114 76.368 28.111 11.644c-4.787 14.604-7.911 29.954-9.12 45.833h-30.317c1.287-19.779 5.114-39.063 11.326-57.477zm-11.326 87.477h30.318c1.209 15.879 4.333 31.229 9.12 45.833l-28.111 11.644c-6.213-18.414-10.04-37.698-11.327-57.477zm22.807 85.193 28.138-11.655c7.121 13.981 15.874 26.996 26.004 38.797l-21.509 21.509c-13.075-14.895-24.005-31.237-32.633-48.651zm102.498 102.498c-17.413-8.627-33.755-19.558-48.651-32.633l21.509-21.509c11.801 10.13 24.816 18.884 38.797 26.004zm85.193 22.807c-19.779-1.288-39.063-5.114-57.477-11.326l11.644-28.111c14.604 4.787 29.954 7.911 45.833 9.12zm-150.75-225.498c0-91.395 74.355-165.75 165.75-165.75s165.75 74.355 165.75 165.75-74.355 165.75-165.75 165.75-165.75-74.355-165.75-165.75zm180.75 225.498v-30.317c15.879-1.209 31.229-4.333 45.833-9.12l11.644 28.111c-18.414 6.212-37.698 10.038-57.477 11.326zm85.193-22.807-11.655-28.138c13.981-7.121 26.996-15.874 38.797-26.004l21.509 21.509c-14.895 13.075-31.237 24.005-48.651 32.633zm69.865-53.846-21.509-21.509c10.13-11.801 18.884-24.816 26.004-38.797l28.138 11.655c-8.628 17.413-19.558 33.755-32.633 48.651zm44.114-76.368-28.111-11.644c4.787-14.604 7.911-29.954 9.12-45.833h30.318c-1.288 19.779-5.115 39.063-11.327 57.477z"/><path d="m328.954 183.045c-1.808-23.315-21.24-41.503-44.106-41.193-10.329 0-20.325 3.001-28.848 8.484-8.522-5.483-18.519-8.484-28.848-8.484-22.949-.685-42.992 19.336-44.106 41.193-21.857 1.115-41.878 21.158-41.193 44.107 0 10.329 3.001 20.325 8.484 28.848-5.483 8.522-8.484 18.519-8.484 28.848-.684 22.946 19.333 42.997 41.193 44.099 1.804 23.318 21.238 41.511 44.107 41.201 10.329 0 20.325-3.001 28.848-8.484 8.522 5.483 18.519 8.484 28.848 8.484 22.952.685 42.997-19.342 44.107-41.201 23.317-1.794 41.503-21.237 41.193-44.099 0-10.329-3.001-20.325-8.484-28.848 5.483-8.522 8.484-18.519 8.484-28.848.683-22.949-19.338-42.992-41.195-44.107zm-101.802-11.192c12.36-1.002 22.127 13.34 28.848 20.87 7.351-8.186 15.852-21.35 28.848-20.87 15.412 1.541 17.204 15.929 9.984 24.103l-38.832 38.831-38.832-38.831c-7.22-8.174-5.428-22.562 9.984-24.103zm-55.299 112.995c-1.002-12.36 13.34-22.127 20.87-28.848-8.186-7.351-21.35-15.852-20.87-28.848.668-11.03 12.081-19.692 24.103-9.984l38.831 38.832-38.831 38.832c-8.176 7.22-22.562 5.427-24.103-9.984zm112.995 55.299c-12.36 1.002-22.127-13.34-28.848-20.87-7.351 8.186-15.852 21.35-28.848 20.87-15.412-1.541-17.204-15.929-9.984-24.103l38.832-38.831 38.832 38.831c7.22 8.174 5.428 22.562-9.984 24.103zm47.317-72.862c5.073 4.442 7.982 10.843 7.982 17.562-.668 11.03-12.083 19.693-24.103 9.984l-38.831-38.831 38.831-38.832c8.435-7.361 22.484-5.37 24.103 9.984 1.002 12.36-13.34 22.127-20.87 28.848z"/></g></svg>