<svg id="Capa_1" enable-background="new 0 0 512 512" height="512" viewBox="0 0 512 512" width="512" xmlns="http://www.w3.org/2000/svg"><path d="m476.503 288.213-41.268-72.22c-22.195-39.139-14.402-78.471 4.445-113.529 11.704-21.771 9.895-47.859-3.1-68.885-12.995-21.026-35.51-33.579-60.227-33.579-24.692 0-47.184 12.527-60.186 33.514-13.001-20.987-35.493-33.514-60.185-33.514-24.679 0-47.161 12.515-60.165 33.482-13.005-20.967-35.487-33.482-60.166-33.482-24.717 0-47.232 12.553-60.227 33.579s-14.841 47.135-3.1 68.886c21.241 39.348 24.469 77.715 4.514 113.409l-41.333 72.331c-41.964 72.86-27.707 166.469 33.791 223.795h373.413c61.462-57.259 75.763-150.672 33.794-223.787zm-134.857-238.862c7.488-12.117 20.463-19.351 34.707-19.351s27.219 7.234 34.708 19.351c7.488 12.117 8.123 26.94 1.786 39.697-4.807 9.677-10.693 20.43-14.33 31.453h-44.328c-2.612-8.641-10.13-23.066-14.33-31.452-6.377-12.737-5.702-27.582 1.787-39.698zm18.896 101.149h31.623c-.96 10.054-.819 20.225.412 30.25h-32.448c1.232-10.025 1.373-20.196.413-30.25zm-44.373-41.932c18.572 37.276 20.333 75.683-.001 109.707-22.075-36.345-16.925-75.924.001-109.707zm-6.389 373.432h-107.596c-44.885-48.402-53.401-121.074-20.305-178.903l41.233-72.157c3.746-6.426 6.886-13.196 9.446-20.19h46.849c2.56 6.994 5.7 13.764 9.446 20.19l41.238 72.166c33.09 57.82 24.575 130.492-20.311 178.894zm-69.61-331.5h31.623c-.96 10.054-.819 20.225.412 30.25h-32.448c1.232-10.025 1.374-20.196.413-30.25zm-18.896-101.149c7.489-12.117 20.464-19.351 34.708-19.351s27.219 7.234 34.708 19.351c7.488 12.117 8.123 26.94 1.786 39.697-4.807 9.677-10.693 20.43-14.33 31.453h-44.328c-2.612-8.641-10.13-23.066-14.33-31.452-6.378-12.737-5.702-27.582 1.786-39.698zm-25.456 59.258c18.546 37.249 20.307 75.628-.001 109.632-22.048-36.331-16.902-75.869.001-109.632zm-94.874-59.258c7.488-12.117 20.463-19.351 34.707-19.351s27.219 7.234 34.708 19.351c7.488 12.117 8.123 26.94 1.786 39.697-4.807 9.677-10.693 20.43-14.33 31.453h-44.328c-2.612-8.641-10.13-23.066-14.33-31.452-6.378-12.737-5.702-27.582 1.787-39.698zm18.895 101.149h31.623c-.96 10.054-.819 20.225.412 30.25h-32.448c1.233-10.025 1.374-20.196.413-30.25zm-58.291 152.597 41.233-72.157c3.746-6.426 6.886-13.196 9.446-20.19h46.849c2.56 6.994 5.7 13.764 9.446 20.19l10.019 17.534-22.704 39.731c-35.2 61.504-31.058 137.054 8.014 193.795h-81.998c-44.885-48.402-53.401-121.074-20.305-178.903zm368.604 178.903h-82.038c39.072-56.741 43.215-132.291 8.019-193.787l-22.688-39.705 10.039-17.569c3.746-6.426 6.886-13.196 9.446-20.19h46.849c2.56 6.994 5.7 13.764 9.446 20.19l41.238 72.166c33.089 57.821 24.574 130.493-20.311 178.895z"/></svg>