<svg id="Capa_1" enable-background="new 0 0 512 512" height="512" viewBox="0 0 512 512" width="512" xmlns="http://www.w3.org/2000/svg"><g><path d="m264.263 241h-16.526c-8.319 0-15.086-6.768-15.086-15.086s6.768-15.087 15.086-15.087h16.147c8.329 0 15.105 6.776 15.105 15.105h30c0-22.45-16.488-41.116-37.99-44.539v-16.183h-30v16.121c-21.677 3.262-38.35 22.01-38.35 44.582 0 24.861 20.226 45.086 45.086 45.086h16.526c8.319 0 15.086 6.768 15.086 15.086s-6.768 15.087-15.086 15.087h-16.82c-8.025 0-14.554-6.529-14.554-14.554h-30c0 22.379 16.587 40.95 38.111 44.082v16.088h30v-16.121c21.677-3.262 38.35-22.01 38.35-44.582.002-24.859-20.224-45.085-45.085-45.085z"/><path d="m437.02 74.98c-48.353-48.351-112.64-74.98-181.02-74.98s-132.667 26.629-181.02 74.98c-48.351 48.353-74.98 112.64-74.98 181.02s26.629 132.667 74.98 181.02c48.353 48.351 112.64 74.98 181.02 74.98s132.667-26.629 181.02-74.98c48.351-48.353 74.98-112.64 74.98-181.02s-26.629-132.667-74.98-181.02zm-308.355 329.568c11.801 10.13 24.816 18.884 38.797 26.004l-11.655 28.138c-17.413-8.627-33.755-19.558-48.651-32.633zm66.502 37.513c14.604 4.787 29.954 7.911 45.833 9.12v30.317c-19.779-1.288-39.063-5.114-57.477-11.326zm75.833 9.12c15.879-1.209 31.229-4.333 45.833-9.12l11.644 28.111c-18.414 6.213-37.698 10.039-57.477 11.326zm73.538-20.629c13.981-7.121 26.996-15.874 38.797-26.004l21.509 21.509c-14.896 13.075-31.238 24.006-48.651 32.633zm-88.538-8.802c-91.395 0-165.75-74.355-165.75-165.75s74.355-165.75 165.75-165.75 165.75 74.355 165.75 165.75-74.355 165.75-165.75 165.75zm-195.181-180.75h-30.317c1.288-19.779 5.114-39.063 11.327-57.477l28.111 11.644c-4.787 14.604-7.912 29.954-9.121 45.833zm0 30c1.209 15.879 4.333 31.229 9.12 45.833l-28.111 11.644c-6.212-18.414-10.039-37.698-11.326-57.477zm322.516-163.548c-11.801-10.13-24.816-18.884-38.797-26.004l11.655-28.138c17.413 8.627 33.755 19.558 48.651 32.633zm-66.502-37.513c-14.604-4.787-29.954-7.911-45.833-9.12v-30.317c19.779 1.288 39.063 5.114 57.477 11.326zm-75.833-9.12c-15.879 1.209-31.229 4.333-45.833 9.12l-11.644-28.111c18.414-6.212 37.698-10.038 57.477-11.326zm-73.538 20.629c-13.981 7.121-26.996 15.874-38.797 26.004l-21.509-21.509c14.896-13.075 31.238-24.006 48.651-32.633zm283.719 189.552h30.318c-1.288 19.779-5.114 39.063-11.327 57.477l-28.111-11.644c4.786-14.604 7.911-29.954 9.12-45.833zm0-30c-1.209-15.879-4.333-31.229-9.12-45.833l28.111-11.644c6.213 18.414 10.039 37.698 11.327 57.477zm7.51-85.193-28.138 11.655c-7.121-13.981-15.874-26.996-26.004-38.797l21.509-21.509c13.075 14.895 24.005 31.237 32.633 48.651zm-372.749-48.652 21.509 21.509c-10.13 11.801-18.884 24.816-26.004 38.797l-28.138-11.655c8.628-17.413 19.558-33.755 32.633-48.651zm-32.633 249.038 28.138-11.655c7.121 13.981 15.874 26.996 26.004 38.797l-21.509 21.509c-13.075-14.895-24.005-31.237-32.633-48.651zm372.749 48.652-21.509-21.509c10.13-11.801 18.884-24.816 26.004-38.797l28.138 11.655c-8.628 17.413-19.558 33.755-32.633 48.651z"/><path d="m256 120.5c-74.715 0-135.5 60.785-135.5 135.5s60.785 135.5 135.5 135.5 135.5-60.785 135.5-135.5-60.785-135.5-135.5-135.5zm0 241c-58.173 0-105.5-47.327-105.5-105.5s47.327-105.5 105.5-105.5 105.5 47.327 105.5 105.5-47.327 105.5-105.5 105.5z"/></g></svg>