<svg id="Capa_1" enable-background="new 0 0 512 512" height="512" viewBox="0 0 512 512" width="512" xmlns="http://www.w3.org/2000/svg"><g><path d="m90.375 120.5h30v30h-30z"/><path d="m271.125 421.75h30v30h-30z"/><path d="m421.625 60.25v-60.25h-331.25v60.25h-60.25v451.75h451.75v-451.75zm-90.25 421.75h-271.25v-391.75h271.25zm-211-421.75v-30.25h271.25v391.75h-30.25v-361.5zm331.5 421.75h-90.5v-30.25h60.25v-361.5h30.25z"/><path d="m271.995 275.251c0-27.542-22.407-49.948-49.949-49.948-9.383 0-18.474 2.645-26.295 7.492-7.821-4.847-16.912-7.492-26.295-7.492-27.542 0-49.949 22.407-49.949 49.948-.214 29.383 26.536 57.899 76.244 87.696 49.708-29.797 76.459-58.312 76.244-87.696zm-30 0c0 9.987-8.268 26.949-46.24 52.154-22.671-15.072-46.248-34.897-46.248-52.154 0-11 8.949-19.948 19.949-19.948 11.817-.385 19.537 12.481 26.295 19.708 6.094-6.735 15.644-20.818 26.295-19.708 11 0 19.949 8.949 19.949 19.948z"/></g></svg>