<svg id="Capa_1" enable-background="new 0 0 512 512" height="512" viewBox="0 0 512 512" width="512" xmlns="http://www.w3.org/2000/svg"><g><path d="m437.02 74.98c-48.353-48.351-112.64-74.98-181.02-74.98s-132.667 26.629-181.02 74.98c-48.351 48.353-74.98 112.64-74.98 181.02s26.629 132.667 74.98 181.02c48.353 48.351 112.64 74.98 181.02 74.98s132.667-26.629 181.02-74.98c48.351-48.353 74.98-112.64 74.98-181.02s-26.629-132.667-74.98-181.02zm-53.685 32.472c-11.801-10.13-24.816-18.884-38.797-26.004l11.655-28.138c17.414 8.627 33.755 19.558 48.651 32.634zm-66.502-37.513c-14.604-4.787-29.954-7.911-45.833-9.12v-30.317c19.779 1.288 39.063 5.114 57.477 11.326zm-75.833-9.12c-15.879 1.209-31.229 4.333-45.833 9.12l-11.644-28.111c18.414-6.212 37.698-10.038 57.477-11.326zm-73.538 20.629c-13.981 7.121-26.996 15.874-38.797 26.004l-21.509-21.509c14.896-13.075 31.238-24.006 48.651-32.634zm-60.01 47.217c-10.13 11.801-18.884 24.816-26.004 38.797l-28.138-11.656c8.627-17.413 19.558-33.755 32.633-48.651zm-37.513 66.502c-4.787 14.604-7.911 29.954-9.12 45.833h-30.317c1.288-19.779 5.114-39.063 11.326-57.477zm-9.12 75.833c1.209 15.879 4.333 31.229 9.12 45.833l-28.111 11.644c-6.212-18.414-10.038-37.698-11.326-57.477zm29.431-15c0-91.395 74.355-165.75 165.75-165.75s165.75 74.355 165.75 165.75-74.355 165.75-165.75 165.75-165.75-74.355-165.75-165.75zm38.415 148.548c11.801 10.13 24.816 18.884 38.797 26.004l-11.655 28.138c-17.414-8.627-33.755-19.558-48.651-32.634zm66.502 37.513c14.604 4.787 29.954 7.911 45.833 9.12v30.317c-19.779-1.288-39.063-5.114-57.477-11.326zm75.833 9.12c15.879-1.209 31.229-4.333 45.833-9.12l11.644 28.111c-18.414 6.213-37.698 10.039-57.477 11.326zm73.538-20.629c13.981-7.121 26.996-15.874 38.797-26.004l21.509 21.509c-14.896 13.075-31.238 24.006-48.651 32.634zm60.01-47.217c10.13-11.801 18.884-24.816 26.004-38.797l28.138 11.656c-8.627 17.413-19.558 33.755-32.633 48.651zm37.513-66.502c4.787-14.604 7.911-29.954 9.12-45.833h30.317c-1.288 19.779-5.114 39.063-11.326 57.477zm9.12-75.833c-1.209-15.879-4.333-31.229-9.12-45.833l28.111-11.644c6.212 18.414 10.039 37.698 11.326 57.477zm7.51-85.193-28.138 11.656c-7.121-13.981-15.874-26.996-26.004-38.797l21.509-21.509c13.075 14.895 24.005 31.236 32.633 48.65zm-405.382 200.386 28.138-11.656c7.121 13.981 15.874 26.996 26.004 38.797l-21.509 21.509c-13.075-14.895-24.005-31.236-32.633-48.65z"/><path d="m173.416 357.761 19.44 14.123 63.144-33.196 63.144 33.196 19.44-14.123-12.06-70.312 51.085-49.796-7.426-22.853-70.597-10.258-31.572-63.972h-24.029l-31.572 63.972-70.597 10.258-7.426 22.853 51.085 49.796zm6.004-118.11 52.915-7.689 23.665-47.95 23.665 47.95 52.915 7.689-38.29 37.324 9.039 52.702-47.329-24.883-47.329 24.882 9.039-52.702z"/></g></svg>