<svg id="Capa_1" enable-background="new 0 0 512 512" height="512" viewBox="0 0 512 512" width="512" xmlns="http://www.w3.org/2000/svg"><g><path d="m120.5 391.625h271v30h-271z"/><path d="m150.637 271.125h30v30h-30z" transform="matrix(.707 -.707 .707 .707 -153.805 200.92)"/><path d="m331.375 271.125h30v30h-30z" transform="matrix(.707 -.707 .707 .707 -100.87 328.728)"/><path d="m196.902 256 59.098 68.972 59.098-68.972-59.098-68.973zm59.098 22.865-19.592-22.865 19.592-22.865 19.592 22.865z"/><path d="m512 195.75c0-24.882-20.243-45.125-45.125-45.125-24.617 0-44.68 19.817-45.105 44.334l-29.481 9.817c-22.547 7.508-47.368-2.075-59.02-22.785l-43.344-77.036c6.964-7.944 11.2-18.336 11.2-29.706 0-24.882-20.243-45.125-45.125-45.125s-45.125 20.243-45.125 45.125c0 11.369 4.236 21.762 11.2 29.706l-43.344 77.036c-11.652 20.71-36.477 30.291-59.019 22.785l-29.482-9.818c-.425-24.517-20.488-44.334-45.105-44.334-24.882.001-45.125 20.244-45.125 45.126 0 22.721 16.883 41.565 38.761 44.668l18.192 90.957h-17.75v30h21.047v90.5h-21.047v30h433.594v-30h-21.047v-90.5h21.047v-30h-17.75l18.192-90.957c21.878-3.103 38.761-21.947 38.761-44.668zm-45.125-15.125c8.34 0 15.125 6.785 15.125 15.125s-6.785 15.125-15.125 15.125-15.125-6.785-15.125-15.125 6.785-15.125 15.125-15.125zm-210.875-120.5c8.34 0 15.125 6.785 15.125 15.125s-6.785 15.125-15.125 15.125-15.125-6.785-15.125-15.125 6.785-15.125 15.125-15.125zm-226 135.625c0-8.34 6.785-15.125 15.125-15.125s15.125 6.785 15.125 15.125-6.785 15.125-15.125 15.125-15.125-6.785-15.125-15.125zm391.75 256.125h-331.5v-90.5h331.5zm-334.203-120.5-19.37-96.853c4.847-2.893 9.104-6.67 12.558-11.105l29.499 9.823c34.39 11.878 76.31-3.032 94.644-36.538l43.332-77.014c2.533.443 5.133.687 7.791.687s5.259-.244 7.792-.687l43.332 77.014c18.672 33.363 58.739 48.358 94.645 36.538l29.498-9.822c3.454 4.435 7.71 8.212 12.558 11.105l-19.37 96.853h-336.909z"/></g></svg>