<svg id="Capa_1" enable-background="new 0 0 512 512" height="512" viewBox="0 0 512 512" width="512" xmlns="http://www.w3.org/2000/svg"><g><path d="m241 90.375h30v150.5h-30z"/><path d="m241 271.125h30v150.5h-30z"/><path d="m346.375 240.875c24.882 0 45.125-20.243 45.125-45.125v-45.125h-45.125v30h15.125v15.125c0 8.34-6.785 15.125-15.125 15.125s-15.125-6.785-15.125-15.125v-60.25c0-8.34 6.785-15.125 15.125-15.125s15.125 6.785 15.125 15.125h30c0-24.882-20.243-45.125-45.125-45.125s-45.125 20.243-45.125 45.125v60.25c0 24.882 20.243 45.125 45.125 45.125z"/><path d="m180.75 357.372-22.75-43.172-22.75 43.171v-86.246h-30v150.5h30.051l22.699-43.075 22.7 43.075h30.05v-150.5h-30z"/><path d="m376.75 357.372-45.45-86.247h-30.05v150.5h30v-86.247l45.449 86.247h30.051v-150.5h-30z"/><path d="m210.75 135.501c.532-23.396-20.443-45.637-45.125-45.126h-45.125v150.5h45.126c24.882 0 45.125-20.243 45.125-45.125 0-11.566-4.375-22.131-11.556-30.125 7.18-7.995 11.555-18.558 11.555-30.124zm-60.251-15.126h15.125c7.051-.042 15.137 6.094 15.125 15.125 0 8.34-6.785 15.125-15.125 15.125h-15.125zm15.126 90.5h-15.126v-30.25h15.126c8.34 0 15.125 6.785 15.125 15.125s-6.785 15.125-15.125 15.125z"/><path d="m473.093 0h-434.186l-38.907 38.907v434.187l38.907 38.906h434.187l38.906-38.907v-434.186zm8.907 460.667-21.333 21.333h-409.334l-21.333-21.333v-409.334l21.333-21.333h409.333l21.334 21.333z"/></g></svg>