<svg id="Capa_1" enable-background="new 0 0 512 512" height="512" viewBox="0 0 512 512" width="512" xmlns="http://www.w3.org/2000/svg"><g><path d="m451.75 0h-331.25v60.25h-60.25v451.75h331.25v-60.25h60.25zm-90.25 482h-271.25v-391.75h271.25zm60.25-60.25h-30.25v-361.5h-241v-30.25h271.25z"/><path d="m210.875 329.531v84.247h30v-87.593c20.544-1.657 44.933-.978 66.398.619l20.004-118.804c-28.025-2.657-58.363-4.079-86.402-2.408v-47.119h-30v49.647c-29.953 3.229-62.702 10.664-92.608 19.284l41.533 113.091c16.055-4.202 35.536-8.756 51.075-10.964zm81.354-94.056-10.089 59.923c-13.889-.435-27.617-.191-41.264.717v-60.473c16.973-.976 34.06-1.031 51.353-.167zm-81.354 2.88v60.849c-10.721 1.505-21.426 3.435-32.152 5.794l-20.948-57.041c17.701-4.239 35.367-7.425 53.1-9.602z"/></g></svg>