<svg id="Capa_1" enable-background="new 0 0 512 512" height="512" viewBox="0 0 512 512" width="512" xmlns="http://www.w3.org/2000/svg"><g><path d="m210.711 240.875h27.506l-50.756 113.221 27.375 12.272 56.164-125.285v-30.208h-90.289v45.125h30z"/><path d="m90.211 256v-15.125h27.506l-50.756 113.221 27.375 12.272 56.164-125.285v-30.208h-90.289v45.125z"/><path d="m331.211 240.875h27.506l-50.756 113.221 27.375 12.272 56.164-125.285v-30.208h-90.289v45.125h30z"/><path d="m482 149.625v76.312h-30.25v-135.562h-152.13c-6.972-34.331-37.387-60.25-73.745-60.25s-66.772 25.919-73.745 60.25h-152.13v391.5h451.75v-135.563h60.25v-196.687zm-256.125-89.5c19.694 0 36.481 12.651 42.684 30.25h-85.368c6.203-17.599 22.99-30.25 42.684-30.25zm195.875 60.25v30.25h-391.75v-30.25zm0 60.25v211h-391.75v-211zm-391.75 271.25v-30.25h391.75v30.25zm452-135.563h-30.25v-60.375h30.25z"/></g></svg>