<svg id="Capa_1" enable-background="new 0 0 512 512" height="512" viewBox="0 0 512 512" width="512" xmlns="http://www.w3.org/2000/svg"><g><path d="m421.75 240.843h30v30h-30z"/><path d="m421.75 391.805h30v30h-30z"/><path d="m241 331.14h30v30h-30z"/><path d="m301.25 331.14h30v30h-30z"/><path d="m361.5 331.14h30v30h-30z"/><path d="m173.888 316.196h-16.526c-8.319 0-15.086-6.768-15.086-15.087s6.768-15.086 15.086-15.086h16.147c8.329 0 15.105 6.776 15.105 15.105h30c0-22.45-16.488-41.116-37.99-44.539v-16.183h-30v16.121c-21.677 3.262-38.35 22.01-38.35 44.581 0 24.861 20.226 45.087 45.086 45.087h16.526c8.319 0 15.086 6.768 15.086 15.086s-6.768 15.087-15.086 15.087h-16.82c-8.025 0-14.554-6.529-14.554-14.554h-30c0 22.379 16.587 40.95 38.111 44.082v16.088h30v-16.121c21.677-3.262 38.35-22.01 38.35-44.582.002-24.86-20.224-45.085-45.085-45.085z"/><path d="m512 94.177-63.816-63.817-150.391 150.39h-297.793v300.89h512v-300.89h-86.574zm-240.99 155.783 6.939-6.939 21.159 21.621-6.709 6.709h-21.39v-21.391zm49.313-6.533-21.159-21.621 106.417-106.417 21.39 21.39zm149.251-149.25-21.39 21.39-21.39-21.39 21.39-21.39zm-439.574 116.573h30.25v240.89h-30.25zm452 0v240.89h-391.75v-240.89h177.543l-26.783 26.783v63.817h63.816l90.6-90.6z"/></g></svg>