<svg id="Capa_1" enable-background="new 0 0 512 512" height="512" viewBox="0 0 512 512" width="512" xmlns="http://www.w3.org/2000/svg"><g><path d="m29.188 90.25h42.417l-30.639 137.55c-26.45 113.941 45.706 237.611 169.908 263.561v20.639h90.25v-20.638c117.096-24.575 197.266-140.738 169.912-263.56l-30.637-137.552h42.413v-90.25h-136.374l-.005 76.04 15.973 151.223c4.861 46.028-20.666 89.375-61.282 108.294v-16.057h-90.25v16.03c-40.815-18.361-66.578-64.369-61.282-108.266l15.97-151.224v-76.04h-136.374zm347.247-30 .002-30.25h76.376v30.25zm-75.311 400.372v-92.735c58.812-19.488 98.655-82.632 91.116-143.776l-14.139-133.861h31.563l32.089 144.074c23.418 103.749-43.058 202.459-140.629 226.298zm-60.25-111.122h30.25v132.5h-30.25zm-138.535-259.25h31.556l-14.137 133.863c-7.608 61.782 32.918 124.497 91.116 143.775v92.733c-97.569-23.842-164.043-122.55-140.625-226.298zm-43.151-60.25h76.375v30.25h-76.375z"/><path d="m103.371 330.25h30v30h-30z"/><path d="m148.624 375.625h30v30h-30z"/><path d="m80.321 269.048h30v30h-30z"/><path d="m378.629 330.25h30v30h-30z"/><path d="m333.376 375.625h30v30h-30z"/><path d="m401.679 269.048h30v30h-30z"/></g></svg>