<svg id="Capa_1" enable-background="new 0 0 512 512" height="512" viewBox="0 0 512 512" width="512" xmlns="http://www.w3.org/2000/svg"><g><path d="m30.125 0v512h451.75v-512zm180.625 30h90.5v30.248h-90.5zm-30 0v60.248h150.5v-60.248h60.375v211h-271.25v-211zm-120.625 452v-452h30.25v452zm241.125 0h-90.5v-30.25h90.5zm30 0v-60.25h-150.5v60.25h-60.375v-211h271.25v211zm120.625 0h-30.25v-452h30.25z"/><path d="m195.75 210.75c24.882 0 45.125-20.243 45.125-45.125s-20.243-45.125-45.125-45.125-45.125 20.243-45.125 45.125 20.243 45.125 45.125 45.125zm0-60.25c8.34 0 15.125 6.785 15.125 15.125s-6.785 15.125-15.125 15.125-15.125-6.785-15.125-15.125 6.785-15.125 15.125-15.125z"/><path d="m316.25 301.25c-24.882 0-45.125 20.243-45.125 45.125s20.243 45.125 45.125 45.125 45.125-20.243 45.125-45.125-20.243-45.125-45.125-45.125zm0 60.25c-8.34 0-15.125-6.785-15.125-15.125s6.785-15.125 15.125-15.125 15.125 6.785 15.125 15.125-6.785 15.125-15.125 15.125z"/></g></svg>