<svg id="Capa_1" enable-background="new 0 0 512 512" height="512" viewBox="0 0 512 512" width="512" xmlns="http://www.w3.org/2000/svg"><path d="m87.892 241 33.875 271h268.466l33.875-271h-78.733v-45.25c0-35.765-16.4-69.302-44.25-91.247v-104.503h-90.25v104.503c-27.85 21.947-44.25 55.483-44.25 91.247v45.25zm183.233-211v30.25h-30.25v-30.25zm42.931 150.75h-116.112c4.183-25.29 21.002-47.75 42.929-60.72v-29.78h30.251v29.779c21.929 12.969 38.748 35.431 42.932 60.721zm1.319 60.25h-118.75v-30.25h118.75zm74.75 30-3.781 30.25h-260.687l-3.782-30.25zm-11.313 90.5h-245.624l-3.781-30.25h253.187zm-230.562 120.5-11.312-90.5h238.124l-11.312 90.5z"/></svg>