<svg id="Capa_1" enable-background="new 0 0 512 512" height="512" viewBox="0 0 512 512" width="512" xmlns="http://www.w3.org/2000/svg"><g><path d="m473.093 0h-373.931l-38.907 38.907v21.343h-21.348l-38.907 38.907v373.936l38.907 38.907h373.932l38.907-38.907v-21.343h21.348l38.906-38.907v-373.936zm-51.348 460.667-21.333 21.333h-349.079l-21.333-21.333v-349.084l21.333-21.333h349.078l21.333 21.333v349.084zm60.255-60.25-21.333 21.333h-8.921v-322.593l-38.908-38.907h-322.583v-8.917l21.333-21.333h349.078l21.334 21.333z"/><path d="m225.873 236.262c-27.495 0-49.863 22.368-49.863 49.863s22.368 49.863 49.863 49.863 49.863-22.368 49.863-49.863-22.369-49.863-49.863-49.863zm0 69.726c-10.952 0-19.863-8.911-19.863-19.863s8.911-19.863 19.863-19.863c10.953 0 19.863 8.911 19.863 19.863s-8.911 19.863-19.863 19.863z"/><path d="m129.625 332.51c-27.495 0-49.863 22.368-49.863 49.863 0 27.494 22.369 49.862 49.863 49.862s49.863-22.368 49.863-49.862c0-27.495-22.368-49.863-49.863-49.863zm0 69.725c-10.953 0-19.863-8.91-19.863-19.862s8.911-19.863 19.863-19.863 19.863 8.911 19.863 19.863-8.911 19.862-19.863 19.862z"/><path d="m322.12 140.015c-27.495 0-49.863 22.368-49.863 49.862 0 27.495 22.368 49.863 49.863 49.863s49.863-22.368 49.863-49.863c0-27.494-22.368-49.862-49.863-49.862zm0 69.725c-10.952 0-19.863-8.911-19.863-19.863s8.911-19.862 19.863-19.862c10.953 0 19.863 8.91 19.863 19.862s-8.91 19.863-19.863 19.863z"/><path d="m322.12 332.51c-27.495 0-49.863 22.368-49.863 49.863 0 27.494 22.368 49.862 49.863 49.862s49.863-22.368 49.863-49.862c0-27.495-22.368-49.863-49.863-49.863zm0 69.725c-10.952 0-19.863-8.91-19.863-19.862s8.911-19.863 19.863-19.863c10.953 0 19.863 8.911 19.863 19.863s-8.91 19.862-19.863 19.862z"/><path d="m129.625 239.74c27.495 0 49.863-22.368 49.863-49.863 0-27.494-22.368-49.862-49.863-49.862s-49.863 22.368-49.863 49.862c0 27.495 22.368 49.863 49.863 49.863zm0-69.725c10.952 0 19.863 8.91 19.863 19.862s-8.911 19.863-19.863 19.863c-10.953 0-19.863-8.911-19.863-19.863s8.91-19.862 19.863-19.862z"/></g></svg>