<svg id="Capa_1" enable-background="new 0 0 512 512" height="512" viewBox="0 0 512 512" width="512" xmlns="http://www.w3.org/2000/svg"><g><path d="m195.75 331.25c1.483 0 2.948-.077 4.395-.217-7.304 14.248-18.106 26.519-31.733 35.486l16.491 25.061c35.047-23.063 55.971-62.485 55.971-105.454 0-24.882-20.243-45.125-45.125-45.125s-45.125 20.243-45.125 45.125 20.244 45.124 45.126 45.124zm0-60.25c8.34 0 15.125 6.785 15.125 15.125s-6.785 15.125-15.125 15.125-15.125-6.785-15.125-15.125 6.785-15.125 15.125-15.125z"/><path d="m316.25 0c-42.85 0-83.542 13.595-117.677 39.313-30.891 23.276-54.545 55.751-67.227 92.084-76.391 26.693-131.346 99.471-131.346 184.853 0 107.937 87.813 195.75 195.75 195.75 85.382 0 158.159-54.954 184.852-131.345 36.333-12.683 68.809-36.336 92.085-67.228 25.718-34.135 39.313-74.827 39.313-117.677 0-107.937-87.813-195.75-195.75-195.75zm163.323 167.447-135.02-135.02c68.758 11.881 123.139 66.262 135.02 135.02zm-283.823-16.947c35.468 0 68.366 11.203 95.352 30.25h-190.704c26.986-19.047 59.884-30.25 95.352-30.25zm105.5 165.75c0 58.173-47.327 105.5-105.5 105.5s-105.5-47.327-105.5-105.5 47.327-105.5 105.5-105.5 105.5 47.327 105.5 105.5zm-271.25 0c0-40.045 14.277-76.818 38.005-105.5h42.82c-30.821 24.859-50.576 62.913-50.576 105.5s19.755 80.641 50.576 105.5h-42.82c-23.728-28.682-38.005-65.455-38.005-105.5zm165.75 165.75c-35.468 0-68.366-11.204-95.352-30.25h190.704c-26.986 19.046-59.884 30.25-95.352 30.25zm127.745-60.25h-42.82c30.821-24.859 50.576-62.913 50.576-105.5s-19.755-80.641-50.576-105.5h42.82c23.729 28.682 38.005 65.455 38.005 105.5s-14.277 76.818-38.005 105.5zm125.232-126.376c-15.621 20.733-36.128 37.61-59.265 49.07 1.334-9.209 2.038-18.62 2.038-28.194 0-107.937-87.813-195.75-195.75-195.75-9.573 0-18.983.704-28.193 2.038 11.459-23.137 28.336-43.643 49.068-59.265 24.661-18.58 53.373-29.677 83.817-32.53l180.813 180.813c-2.851 30.445-13.948 59.157-32.528 83.818z"/></g></svg>