<svg id="Capa_1" enable-background="new 0 0 512 512" height="512" viewBox="0 0 512 512" width="512" xmlns="http://www.w3.org/2000/svg"><g><path d="m451.75 256h-30v75.817h-30.25v-29.682h-30.125v-31.135h30.125v-150.058h-30.125v-60.692h-90.375v-15.125c0-24.882-20.243-45.125-45.125-45.125s-45.125 20.243-45.125 45.125v15.125h-90.375v60.692h-30.125v150.058h30.125v31.136h-30.125v89.364h30.125v120.5h271v-120.5h30.125v-29.683h60.25zm-90.25-15h-45.312v-90.058h45.312zm-150.625-90.058v90.058h-45.313v-90.058zm30 0h45.312v90.058h-45.312zm-30.125-105.817c0-8.34 6.785-15.125 15.125-15.125s15.125 6.785 15.125 15.125v15.125h-30.25zm-90.375 45.125h211v30.692h-211zm-30.125 60.692h45.312v90.058h-45.312zm30.125 120.058h211v31.136h-211zm211 211h-211v-90.5h211zm30.125-120.5h-271.25v-29.364h271.25z"/><path d="m150.625 421.75h30v30h-30z" transform="matrix(.707 -.707 .707 .707 -260.318 245.036)"/><path d="m210.875 421.75h30v30h-30z" transform="matrix(.707 -.707 .707 .707 -242.672 287.639)"/><path d="m271.125 421.75h30v30h-30z" transform="matrix(.707 -.707 .707 .707 -225.025 330.242)"/></g></svg>