<svg id="Capa_1" enable-background="new 0 0 512 512" height="512" viewBox="0 0 512 512" width="512" xmlns="http://www.w3.org/2000/svg"><path d="m443.896 301.221h-52.396v-50.57l-57.749-71.169c7.399-24.853 30.446-43.032 57.67-43.032v-30c-33.179 0-60.171-26.993-60.171-60.171h-30c0 33.178-26.992 60.171-60.171 60.171v30c22.299 0 41.789 12.202 52.183 30.271h-104.658l-32.309 39.817c-3.711-7.808-5.795-16.533-5.795-25.738h-30c0 33.179-26.992 60.171-60.171 60.171v30 .001h.026c22.28.009 41.752 12.199 52.145 30.249h-44.396l-68.104 83.93v80.57h512v-80.57zm-14.292 30 35.907 44.25h-178.022l35.907-44.25zm-173.604 35.444-28.761-35.444h57.522zm53.104-65.444h-150.604c10.393-18.05 29.865-30.24 52.145-30.249h.026v-.001h150.829v30.25zm7.146-205.2c6.691 10.078 15.351 18.738 25.429 25.429-10.078 6.691-18.738 15.351-25.429 25.429-6.691-10.078-15.351-18.738-25.429-25.429 10.078-6.69 18.738-15.351 25.429-25.429zm-113.354 100.7h106.21l35.906 44.25h-134.341c-12.919 0-24.89-4.106-34.705-11.063zm-67.396 33.821c6.691 10.078 15.351 18.738 25.429 25.429-10.078 6.691-18.738 15.351-25.429 25.429-6.691-10.078-15.351-18.738-25.429-25.429 10.078-6.69 18.738-15.351 25.429-25.429zm-53.104 100.679h106.209l35.907 44.25h-178.023zm-52.396 104.5v-30.25h211v30.25zm241 0v-30.25h211v30.25z"/></svg>