<svg id="Capa_1" enable-background="new 0 0 512.022 512.022" height="512" viewBox="0 0 512.022 512.022" width="512" xmlns="http://www.w3.org/2000/svg"><g><path d="m195.75 241.022c-24.882 0-45.125 20.243-45.125 45.125 0 11.568 4.38 22.13 11.563 30.125-7.183 7.995-11.563 18.557-11.563 30.125 0 24.882 20.243 45.125 45.125 45.125s45.125-20.243 45.125-45.125c0-11.568-4.38-22.13-11.563-30.125 7.183-7.995 11.563-18.557 11.563-30.125 0-24.882-20.243-45.125-45.125-45.125zm0 30c8.34 0 15.125 6.785 15.125 15.125s-6.785 15.125-15.125 15.125-15.125-6.785-15.125-15.125 6.785-15.125 15.125-15.125zm0 90.5c-8.34 0-15.125-6.785-15.125-15.125s6.785-15.125 15.125-15.125 15.125 6.785 15.125 15.125-6.785 15.125-15.125 15.125z"/><path d="m195.75 180.772c-74.715 0-135.5 60.785-135.5 135.5s60.785 135.5 135.5 135.5 135.5-60.785 135.5-135.5-60.785-135.5-135.5-135.5zm0 241c-58.173 0-105.5-47.327-105.5-105.5s47.327-105.5 105.5-105.5 105.5 47.327 105.5 105.5-47.327 105.5-105.5 105.5z"/><path d="m316.25.022c-81.258-1.29-158.87 54.281-184.903 131.398-76.392 26.692-131.347 99.469-131.347 184.852 0 107.937 87.813 195.75 195.75 195.75 85.383 0 158.16-54.955 184.852-131.347 76.642-25.872 132.69-103.137 131.398-184.903 0-107.937-87.813-195.75-195.75-195.75zm159.405 150.27c-30.784 2.62-61.114-8.279-83.38-30.544-22.269-22.27-33.167-52.596-30.545-83.38 54.896 15.684 98.24 59.027 113.925 113.924zm-279.905 331.73c-91.395 0-165.75-74.355-165.75-165.75s74.355-165.75 165.75-165.75 165.75 74.355 165.75 165.75-74.355 165.75-165.75 165.75zm193.712-137.557c1.334-9.209 2.038-18.62 2.038-28.193 0-107.937-87.813-195.75-195.75-195.75-9.573 0-18.984.704-28.193 2.038 26.711-55.251 86.464-93.382 148.693-92.538 5.355 0 10.648.265 15.875.764-4.39 40.584 9.588 80.824 38.937 110.175 25.809 25.809 60.041 39.74 95.526 39.74 4.864 0 9.754-.271 14.648-.8.499 5.225.764 10.518.764 15.872.844 62.229-37.286 121.981-92.538 148.692z"/></g></svg>