<svg xmlns="http://www.w3.org/2000/svg" width="359" height="215" viewBox="0 0 359 215" fill="none">
  <g clip-path="url(#clip0_2421_12756)">
    <path d="M252.516 121.9C254.502 121.704 255.953 119.935 255.757 117.949C255.562 115.963 253.793 114.512 251.807 114.708C249.821 114.904 248.37 116.672 248.565 118.658C248.761 120.644 250.53 122.096 252.516 121.9Z" stroke="white" stroke-width="2" stroke-linecap="round" stroke-linejoin="round"/>
    <path fill-rule="evenodd" clip-rule="evenodd" d="M269.849 119.302C271.777 119.819 272.921 121.8 272.404 123.727C271.887 125.655 269.906 126.799 267.979 126.282C266.051 125.766 264.907 123.785 265.424 121.857C265.94 119.93 267.921 118.786 269.849 119.302Z" stroke="white" stroke-width="2" stroke-linecap="round" stroke-linejoin="round"/>
    <path fill-rule="evenodd" clip-rule="evenodd" d="M265.36 136.055C267.287 136.571 268.431 138.553 267.915 140.48C267.398 142.408 265.417 143.552 263.49 143.035C261.562 142.519 260.418 140.537 260.935 138.61C261.451 136.682 263.432 135.538 265.36 136.055Z" stroke="white" stroke-width="2" stroke-linecap="round" stroke-linejoin="round"/>
    <path d="M256.007 149.26L269.808 152.958C271.344 153.369 272.937 152.45 273.348 150.914L282.326 117.408C282.738 115.873 281.818 114.28 280.282 113.868L246.777 104.89C245.241 104.479 243.648 105.399 243.236 106.934L237.007 130.183" stroke="white" stroke-width="2" stroke-linecap="round" stroke-linejoin="round"/>
    <path fill-rule="evenodd" clip-rule="evenodd" d="M213.458 136.713L246.963 127.736C248.499 127.324 250.092 128.244 250.503 129.78L259.481 163.285C259.893 164.821 258.973 166.414 257.437 166.826L223.932 175.803C222.396 176.215 220.803 175.295 220.391 173.759L211.414 140.254C211.002 138.718 211.922 137.125 213.458 136.713Z" stroke="white" stroke-width="2" stroke-linecap="round" stroke-linejoin="round"/>
    <path fill-rule="evenodd" clip-rule="evenodd" d="M234.512 148.279C236.439 147.763 238.421 148.907 238.937 150.834C239.454 152.762 238.31 154.743 236.382 155.26C234.455 155.776 232.473 154.632 231.957 152.705C231.441 150.777 232.585 148.796 234.512 148.279Z" stroke="white" stroke-width="2" stroke-linecap="round" stroke-linejoin="round"/>
  </g>
  <g clip-path="url(#clip1_2421_12756)">
    <path d="M120.308 147.002L106.909 140.433C103.806 138.912 102.524 135.163 104.045 132.06C105.566 128.957 109.315 127.674 112.418 129.195L114.58 130.255L115.639 128.094C117.16 124.991 120.909 123.709 124.012 125.23C127.115 126.751 128.398 130.5 126.876 133.603L120.308 147.002Z" stroke="white" stroke-width="2" stroke-linecap="round" stroke-linejoin="round"/>
    <path d="M150.721 167.954L109.098 182.191C106.239 183.169 103.128 181.644 102.15 178.785L79.6163 112.906C78.6384 110.047 80.1634 106.936 83.0222 105.958L124.646 91.7211C127.505 90.7432 130.615 92.268 131.593 95.127L154.127 161.006C155.105 163.865 153.58 166.976 150.721 167.954Z" stroke="white" stroke-width="2" stroke-linecap="round" stroke-linejoin="round"/>
    <path d="M88.2414 104.173L87.0562 100.708C86.0743 97.8376 87.6055 94.7146 90.4761 93.7327L132.057 79.5098C134.928 78.5279 138.051 80.059 139.033 82.9295L161.553 148.767C162.534 151.637 161.003 154.76 158.133 155.742L152.935 157.52" stroke="white" stroke-width="2" stroke-linecap="round" stroke-linejoin="round"/>
    <path d="M91.2949 124.417L92.3441 110.511L101.69 120.861" stroke="white" stroke-width="2" stroke-linecap="round" stroke-linejoin="round"/>
    <path d="M99.0203 117.904L91.5947 120.444" stroke="white" stroke-width="2" stroke-linecap="round" stroke-linejoin="round"/>
    <path d="M132.054 153.051L141.4 163.401L142.449 149.495" stroke="white" stroke-width="2" stroke-linecap="round" stroke-linejoin="round"/>
    <path d="M134.724 156.008L142.149 153.468" stroke="white" stroke-width="2" stroke-linecap="round" stroke-linejoin="round"/>
  </g>
  <mask id="mask0_2421_12756" style="mask-type:luminance" maskUnits="userSpaceOnUse" x="109" y="43" width="141" height="141">
    <path d="M109.87 43.3468H249.87V183.347H109.87V43.3468Z" fill="white"/>
  </mask>
  <g mask="url(#mask0_2421_12756)">
    <path d="M245.769 113.347C245.769 149.742 216.265 179.245 179.87 179.245C143.475 179.245 113.972 149.742 113.972 113.347C113.972 76.952 143.475 47.4484 179.87 47.4484C216.265 47.4484 245.769 76.952 245.769 113.347Z" fill="#040504" stroke="white" stroke-width="2.5" stroke-linecap="round" stroke-linejoin="round"/>
    <path d="M223.894 113.347C223.894 137.66 204.184 157.37 179.87 157.37C155.557 157.37 135.847 137.66 135.847 113.347C135.847 89.0333 155.557 69.3234 179.87 69.3234C204.184 69.3234 223.894 89.0333 223.894 113.347Z" stroke="white" stroke-width="2.5" stroke-linecap="round" stroke-linejoin="round"/>
    <path d="M223.894 113.347H245.769" stroke="white" stroke-width="2.5" stroke-linecap="round" stroke-linejoin="round"/>
    <path d="M113.972 113.347H135.847" stroke="white" stroke-width="2.5" stroke-linecap="round" stroke-linejoin="round"/>
    <path d="M217.995 91.3351L236.939 80.3976" stroke="white" stroke-width="2.5" stroke-linecap="round" stroke-linejoin="round"/>
    <path d="M122.801 146.296L141.745 135.359" stroke="white" stroke-width="2.5" stroke-linecap="round" stroke-linejoin="round"/>
    <path d="M201.882 75.2214L212.819 56.2771" stroke="white" stroke-width="2.5" stroke-linecap="round" stroke-linejoin="round"/>
    <path d="M146.921 170.416L157.858 151.472" stroke="white" stroke-width="2.5" stroke-linecap="round" stroke-linejoin="round"/>
    <path d="M179.87 69.3234V47.4484" stroke="white" stroke-width="2.5" stroke-linecap="round" stroke-linejoin="round"/>
    <path d="M179.87 179.245V157.37" stroke="white" stroke-width="2.5" stroke-linecap="round" stroke-linejoin="round"/>
    <path d="M157.858 75.2214L146.921 56.2771" stroke="white" stroke-width="2.5" stroke-linecap="round" stroke-linejoin="round"/>
    <path d="M212.819 170.416L201.882 151.472" stroke="white" stroke-width="2.5" stroke-linecap="round" stroke-linejoin="round"/>
    <path d="M141.745 91.3351L122.801 80.3976" stroke="white" stroke-width="2.5" stroke-linecap="round" stroke-linejoin="round"/>
    <path d="M236.939 146.296L217.995 135.359" stroke="white" stroke-width="2.5" stroke-linecap="round" stroke-linejoin="round"/>
  </g>
  <path d="M165.725 132.847V95.4468H180.3C189.54 95.4468 195.26 100.122 195.26 107.987C195.26 116.017 189.485 120.637 180.41 120.637H174.525V132.847H165.725ZM180.135 102.432H174.525V113.652H179.915C184.205 113.652 186.185 111.397 186.185 108.042C186.185 104.632 184.095 102.432 180.135 102.432Z" fill="#FFD700"/>
  <path d="M206.506 51.5033V52.532C206.506 56.707 203.122 60.0915 198.947 60.0915H160.794C156.619 60.0915 153.234 56.707 153.234 52.532V51.5033H206.506Z" fill="#040504" stroke="#FFD700" stroke-width="2" stroke-miterlimit="10"/>
  <path d="M203.741 28.9757L194.792 37.2325L179.917 21.4412H179.823L164.949 37.2325L155.944 28.924H155.896V51.5033H203.844V28.9757H203.741Z" fill="#040504" stroke="#FFD700" stroke-width="2" stroke-miterlimit="10"/>
  <path d="M179.87 33.5191C179.87 33.5191 168.224 41.2344 174.356 51.5033H179.87H185.384C191.516 41.2343 179.87 33.5191 179.87 33.5191Z" stroke="#FFD700" stroke-width="2" stroke-miterlimit="10"/>
  <path d="M155.896 39.542V51.5032H161.873C165.596 44.47 155.896 39.542 155.896 39.542Z" stroke="#FFD700" stroke-width="2" stroke-miterlimit="10"/>
  <path d="M203.844 39.542V51.5032H197.868C194.144 44.47 203.844 39.542 203.844 39.542Z" stroke="#FFD700" stroke-width="2" stroke-miterlimit="10"/>
  <path d="M179.87 20.8084C182.227 20.8084 184.138 18.8974 184.138 16.5401C184.138 14.1828 182.227 12.2718 179.87 12.2718C177.513 12.2718 175.602 14.1828 175.602 16.5401C175.602 18.8974 177.513 20.8084 179.87 20.8084Z" fill="#040504" stroke="#FFD700" stroke-width="2" stroke-miterlimit="10"/>
  <path d="M155.896 28.1501C158.254 28.1501 160.165 26.2391 160.165 23.8818C160.165 21.5244 158.254 19.6134 155.896 19.6134C153.539 19.6134 151.628 21.5244 151.628 23.8818C151.628 26.2391 153.539 28.1501 155.896 28.1501Z" fill="#040504" stroke="#FFD700" stroke-width="2" stroke-miterlimit="10"/>
  <path d="M203.844 28.1501C206.201 28.1501 208.112 26.2391 208.112 23.8818C208.112 21.5244 206.201 19.6134 203.844 19.6134C201.486 19.6134 199.575 21.5244 199.575 23.8818C199.575 26.2391 201.486 28.1501 203.844 28.1501Z" fill="#040504" stroke="#FFD700" stroke-width="2" stroke-miterlimit="10"/>
  <defs>
    <clipPath id="clip0_2421_12756">
      <rect width="74" height="74" fill="white" transform="translate(209.87 103.347)"/>
    </clipPath>
    <clipPath id="clip1_2421_12756">
      <rect width="93.3715" height="93.3715" fill="white" transform="translate(61.3057 101.783) rotate(-18.8833)"/>
    </clipPath>
  </defs>
</svg>