<svg xmlns="http://www.w3.org/2000/svg" width="359" height="215" viewBox="0 0 359 215" fill="none">
  <g mask="url(#mask0_2421_12756)">
    <path d="M245.769 113.347C245.769 149.742 216.265 179.245 179.87 179.245C143.475 179.245 113.972 149.742 113.972 113.347C113.972 76.952 143.475 47.4484 179.87 47.4484C216.265 47.4484 245.769 76.952 245.769 113.347Z" fill="#040504" stroke="white" stroke-width="2.5" stroke-linecap="round" stroke-linejoin="round"/>
    <path d="M223.894 113.347C223.894 137.66 204.184 157.37 179.87 157.37C155.557 157.37 135.847 137.66 135.847 113.347C135.847 89.0333 155.557 69.3234 179.87 69.3234C204.184 69.3234 223.894 89.0333 223.894 113.347Z" stroke="white" stroke-width="2.5" stroke-linecap="round" stroke-linejoin="round"/>
    <path d="M223.894 113.347H245.769" stroke="white" stroke-width="2.5" stroke-linecap="round" stroke-linejoin="round"/>
    <path d="M113.972 113.347H135.847" stroke="white" stroke-width="2.5" stroke-linecap="round" stroke-linejoin="round"/>
    <path d="M217.995 91.3351L236.939 80.3976" stroke="white" stroke-width="2.5" stroke-linecap="round" stroke-linejoin="round"/>
    <path d="M122.801 146.296L141.745 135.359" stroke="white" stroke-width="2.5" stroke-linecap="round" stroke-linejoin="round"/>
    <path d="M201.882 75.2214L212.819 56.2771" stroke="white" stroke-width="2.5" stroke-linecap="round" stroke-linejoin="round"/>
    <path d="M146.921 170.416L157.858 151.472" stroke="white" stroke-width="2.5" stroke-linecap="round" stroke-linejoin="round"/>
    <path d="M179.87 69.3234V47.4484" stroke="white" stroke-width="2.5" stroke-linecap="round" stroke-linejoin="round"/>
    <path d="M179.87 179.245V157.37" stroke="white" stroke-width="2.5" stroke-linecap="round" stroke-linejoin="round"/>
    <path d="M157.858 75.2214L146.921 56.2771" stroke="white" stroke-width="2.5" stroke-linecap="round" stroke-linejoin="round"/>
    <path d="M212.819 170.416L201.882 151.472" stroke="white" stroke-width="2.5" stroke-linecap="round" stroke-linejoin="round"/>
    <path d="M141.745 91.3351L122.801 80.3976" stroke="white" stroke-width="2.5" stroke-linecap="round" stroke-linejoin="round"/>
    <path d="M236.939 146.296L217.995 135.359" stroke="white" stroke-width="2.5" stroke-linecap="round" stroke-linejoin="round"/>
  </g>
  <path d="M165.725 132.847V95.4468H180.3C189.54 95.4468 195.26 100.122 195.26 107.987C195.26 116.017 189.485 120.637 180.41 120.637H174.525V132.847H165.725ZM180.135 102.432H174.525V113.652H179.915C184.205 113.652 186.185 111.397 186.185 108.042C186.185 104.632 184.095 102.432 180.135 102.432Z" fill="#FFD700"/>
  <defs>
    <clipPath id="clip0_2421_12756">
      <rect width="74" height="74" fill="white" transform="translate(209.87 103.347)"/>
    </clipPath>
    <clipPath id="clip1_2421_12756">
      <rect width="93.3715" height="93.3715" fill="white" transform="translate(61.3057 101.783) rotate(-18.8833)"/>
    </clipPath>
  </defs>
</svg>