<?xml version="1.0" encoding="UTF-8"?>
<svg xmlns="http://www.w3.org/2000/svg" width="359" height="215" viewBox="0 0 359 215" fill="none">
  <g mask="url(#mask0_2421_12683)">
    <path d="M253.154 103.79C253.154 140.185 223.651 169.689 187.256 169.689C150.861 169.689 121.357 140.185 121.357 103.79C121.357 67.3956 150.861 37.892 187.256 37.892C223.651 37.892 253.154 67.3956 253.154 103.79Z" fill="#040504" stroke="white" stroke-width="2" stroke-miterlimit="10" stroke-linecap="round" stroke-linejoin="round"></path>
    <path d="M231.279 103.79C231.279 128.104 211.569 147.814 187.256 147.814C162.942 147.814 143.232 128.104 143.232 103.79C143.232 79.4769 162.942 59.767 187.256 59.767C211.569 59.767 231.279 79.4769 231.279 103.79Z" stroke="white" stroke-width="2" stroke-miterlimit="10" stroke-linecap="round" stroke-linejoin="round"></path>
    <path d="M231.279 103.79H253.154" stroke="white" stroke-width="2" stroke-miterlimit="10" stroke-linecap="round" stroke-linejoin="round"></path>
    <path d="M121.357 103.79H143.232" stroke="white" stroke-width="2" stroke-miterlimit="10" stroke-linecap="round" stroke-linejoin="round"></path>
    <path d="M225.381 81.7787L244.325 70.8412" stroke="white" stroke-width="2" stroke-miterlimit="10" stroke-linecap="round" stroke-linejoin="round"></path>
    <path d="M130.187 136.74L149.131 125.802" stroke="white" stroke-width="2" stroke-miterlimit="10" stroke-linecap="round" stroke-linejoin="round"></path>
    <path d="M209.268 65.665L220.205 46.7207" stroke="white" stroke-width="2" stroke-miterlimit="10" stroke-linecap="round" stroke-linejoin="round"></path>
    <path d="M154.307 160.86L165.244 141.916" stroke="white" stroke-width="2" stroke-miterlimit="10" stroke-linecap="round" stroke-linejoin="round"></path>
    <path d="M187.256 59.767V37.892" stroke="white" stroke-width="2" stroke-miterlimit="10" stroke-linecap="round" stroke-linejoin="round"></path>
    <path d="M187.256 169.689V147.814" stroke="white" stroke-width="2" stroke-miterlimit="10" stroke-linecap="round" stroke-linejoin="round"></path>
    <path d="M165.244 65.665L154.307 46.7207" stroke="white" stroke-width="2" stroke-miterlimit="10" stroke-linecap="round" stroke-linejoin="round"></path>
    <path d="M220.205 160.86L209.268 141.916" stroke="white" stroke-width="2" stroke-miterlimit="10" stroke-linecap="round" stroke-linejoin="round"></path>
    <path d="M149.131 81.7787L130.187 70.8412" stroke="white" stroke-width="2" stroke-miterlimit="10" stroke-linecap="round" stroke-linejoin="round"></path>
    <path d="M244.325 136.74L225.381 125.802" stroke="white" stroke-width="2" stroke-miterlimit="10" stroke-linecap="round" stroke-linejoin="round"></path>
  </g>
  <path d="M152.773 116.29V91.3494H163.373C169.388 91.3494 173.056 94.3203 173.056 99.0884C173.056 101.766 171.992 103.71 170.048 104.884C171.112 105.727 171.772 106.938 172.176 108.625L174.01 116.29H167.078L165.757 109.835C165.354 107.891 164.73 107.451 162.896 107.451H159.485V116.29H152.773ZM163.226 96.631H159.485V102.316H163.08C165.244 102.316 166.197 101.142 166.197 99.4552C166.197 97.7313 165.207 96.631 163.226 96.631ZM176.879 116.29V91.3494H195.108V96.631H183.591V100.996H193.641V106.131H183.591V111.009H195.108V116.29H176.879ZM221.291 116.29H216.853L216.303 113.796C214.762 115.924 212.342 116.951 209.481 116.951C202.439 116.951 197.707 111.962 197.707 103.857C197.707 95.7507 202.439 90.6891 210.068 90.6891C215.606 90.6891 220.264 93.6967 221.328 99.6019H214.322C213.699 97.3279 212.158 96.1542 209.884 96.1542C206.51 96.1542 204.566 99.0517 204.566 103.857C204.566 108.661 206.62 111.486 210.104 111.486C212.488 111.486 214.506 110.312 214.946 107.524H210.728V102.573H221.291V116.29Z" fill="#FFCF3F"></path>
</svg>
